<?xml version="1.0" encoding="UTF-8" standalone="no"?>
<!-- Generator: Adobe Illustrator 15.0.0, SVG Export Plug-In . SVG Version: 6.00 Build 0)  -->

<svg
   xmlns:dc="http://purl.org/dc/elements/1.1/"
   xmlns:cc="http://creativecommons.org/ns#"
   xmlns:rdf="http://www.w3.org/1999/02/22-rdf-syntax-ns#"
   xmlns:svg="http://www.w3.org/2000/svg"
   xmlns="http://www.w3.org/2000/svg"
   xmlns:sodipodi="http://sodipodi.sourceforge.net/DTD/sodipodi-0.dtd"
   xmlns:inkscape="http://www.inkscape.org/namespaces/inkscape"
   version="1.1"
   x="0px"
   y="0px"
   width="2295.3325"
   height="2785.0723"
   viewBox="0 0 2295.3326 2785.0722"
   enable-background="new 0 0 303 255"
   xml:space="preserve"
   id="svg2"
   inkscape:version="0.91 r13725"
   sodipodi:docname="ideas on new logo.svg"><metadata
     id="metadata43"><rdf:RDF><cc:Work
         rdf:about=""><dc:format>image/svg+xml</dc:format><dc:type
           rdf:resource="http://purl.org/dc/dcmitype/StillImage" /><dc:title /></cc:Work></rdf:RDF></metadata><defs
     id="defs41"><inkscape:perspective
       sodipodi:type="inkscape:persp3d"
       inkscape:vp_x="0 : 105.718 : 1"
       inkscape:vp_y="0 : 1000 : 0"
       inkscape:vp_z="205.799 : 105.718 : 1"
       inkscape:persp3d-origin="102.8995 : 70.478667 : 1"
       id="perspective4585" /></defs><sodipodi:namedview
     pagecolor="#ffffff"
     bordercolor="#666666"
     borderopacity="1"
     objecttolerance="10"
     gridtolerance="10"
     guidetolerance="10"
     inkscape:pageopacity="0"
     inkscape:pageshadow="2"
     inkscape:window-width="1920"
     inkscape:window-height="1155"
     id="namedview39"
     showgrid="false"
     fit-margin-top="0"
     fit-margin-left="0"
     fit-margin-right="0"
     fit-margin-bottom="0"
     inkscape:zoom="0.50000001"
     inkscape:cx="62.360719"
     inkscape:cy="705.99595"
     inkscape:window-x="0"
     inkscape:window-y="1"
     inkscape:window-maximized="1"
     inkscape:current-layer="g4765"
     showguides="false" /><g
     id="Layer_1"
     display="none"
     style="display:none"
     transform="translate(1988.0144,831.78359)"><g
       display="inline"
       id="g5"
       style="display:inline"><path
         d="m 87.348,114.674 c 0.828,0 3.779,0.072 3.779,3.204 l 0,1.368 7.415,0 c 0,0 -0.036,3.024 -2.231,3.024 l -5.184,0 0,7.919 c 0,2.483 0.792,4.031 3.563,4.031 2.304,0 4.428,-1.116 4.428,-3.779 0.828,1.044 1.26,1.979 1.26,2.916 0,2.34 -2.52,3.888 -6.155,3.888 -4.284,0 -6.875,-2.232 -6.875,-6.047 l 0,-16.524 z"
         id="path7"
         inkscape:connector-curvature="0"
         style="fill:#3d3d3d" /><path
         d="m 117.514,133.176 c 0,2.556 -3.167,4.068 -7.019,4.068 -5.003,0 -8.027,-2.268 -8.027,-6.047 l 0,-7.019 c 0,-3.78 2.627,-6.047 7.487,-6.047 4.86,0 7.343,2.268 7.343,5.688 0,2.987 -1.908,5.615 -7.379,5.615 -1.188,0 -2.7,-0.216 -3.671,-0.756 l 0,1.979 c 0,2.34 1.224,3.528 4.248,3.528 3.456,0 5.975,-1.404 6.011,-3.744 0.683,1.007 1.007,1.907 1.007,2.735 z m -11.267,-7.307 c 0.18,0.072 1.908,0.504 3.204,0.504 3.023,0 4.067,-0.936 4.067,-2.556 0,-1.656 -0.972,-2.808 -3.635,-2.808 -2.88,0 -3.636,1.368 -3.636,3.708 l 0,1.152 z"
         id="path9"
         inkscape:connector-curvature="0"
         style="fill:#3d3d3d" /><path
         d="m 127.954,118.058 c 4.104,0 6.947,1.116 6.947,3.563 0,0.864 -0.36,1.908 -1.224,3.096 0,-2.34 -2.231,-3.528 -5.543,-3.528 -2.844,0 -3.888,0.792 -3.888,2.592 0,3.779 11.555,-0.684 11.555,7.811 0,3.456 -2.556,5.651 -7.847,5.651 -4.248,0 -7.343,-1.224 -7.343,-3.744 0,-0.9 0.396,-1.908 1.404,-3.132 0.072,2.844 2.808,3.816 5.939,3.816 2.268,0 3.996,-0.9 3.996,-2.772 0,-4.5 -11.555,0.18 -11.555,-7.523 0,-3.85 2.628,-5.83 7.559,-5.83 z"
         id="path11"
         inkscape:connector-curvature="0"
         style="fill:#3d3d3d" /><path
         d="m 139.403,114.674 c 0.828,0 3.779,0.072 3.779,3.204 l 0,1.368 7.415,0 c 0,0 -0.036,3.024 -2.231,3.024 l -5.184,0 0,7.919 c 0,2.483 0.792,4.031 3.563,4.031 2.304,0 4.428,-1.116 4.428,-3.779 0.828,1.044 1.26,1.979 1.26,2.916 0,2.34 -2.52,3.888 -6.155,3.888 -4.284,0 -6.875,-2.232 -6.875,-6.047 l 0,-16.524 z"
         id="path13"
         inkscape:connector-curvature="0"
         style="fill:#3d3d3d" /><path
         d="m 176.157,109.671 c 0.216,0 3.78,-0.036 3.78,2.412 l 0,25.053 c -0.864,-0.396 -1.872,-0.504 -2.664,-0.504 -1.692,0 -3.384,0.612 -5.04,0.612 -4.859,0 -7.631,-2.16 -7.631,-5.976 l 0,-7.199 c 0,-3.708 3.131,-5.939 6.731,-5.939 3.671,0 5.147,1.692 5.147,1.692 0,0 -0.324,-1.008 -0.324,-2.7 l 0,-7.451 z m 0,14.578 c 0,-1.908 -2.196,-3.24 -4.355,-3.24 -1.979,0 -3.419,1.08 -3.419,3.6 l 0,6.12 c 0,2.447 0.936,3.635 4.284,3.635 2.16,0 3.491,-0.648 3.491,-0.648 l 0,-9.467 z"
         id="path15"
         inkscape:connector-curvature="0"
         style="fill:#3d3d3d" /><path
         d="m 199.304,133.176 c 0,2.556 -3.167,4.068 -7.019,4.068 -5.003,0 -8.027,-2.268 -8.027,-6.047 l 0,-7.019 c 0,-3.78 2.627,-6.047 7.487,-6.047 4.86,0 7.343,2.268 7.343,5.688 0,2.987 -1.908,5.615 -7.379,5.615 -1.188,0 -2.7,-0.216 -3.671,-0.756 l 0,1.979 c 0,2.34 1.224,3.528 4.248,3.528 3.456,0 5.975,-1.404 6.011,-3.744 0.683,1.007 1.007,1.907 1.007,2.735 z m -11.266,-7.307 c 0.18,0.072 1.908,0.504 3.204,0.504 3.023,0 4.067,-0.936 4.067,-2.556 0,-1.656 -0.972,-2.808 -3.635,-2.808 -2.88,0 -3.636,1.368 -3.636,3.708 l 0,1.152 z"
         id="path17"
         inkscape:connector-curvature="0"
         style="fill:#3d3d3d" /><path
         d="m 217.771,133.212 c 0,2.592 -3.204,4.032 -6.983,4.032 -4.859,0 -7.883,-2.232 -7.883,-6.047 l 0,-7.019 c 0,-3.78 2.916,-6.047 7.775,-6.047 3.023,0 6.551,1.116 6.551,3.923 0,0.9 -0.36,1.908 -1.188,3.096 0,-2.735 -2.412,-3.996 -4.823,-3.996 -2.988,0 -4.536,1.008 -4.536,3.78 l 0,5.507 c 0,2.556 1.368,3.779 4.463,3.779 3.132,0 5.615,-1.44 5.615,-3.744 0.722,1.044 1.009,1.944 1.009,2.736 z"
         id="path19"
         inkscape:connector-curvature="0"
         style="fill:#3d3d3d" /><path
         d="m 237.248,136.704 c 0,0 -1.476,0.36 -2.088,0.36 -4.536,0 -1.764,-8.063 -10.007,-9.035 l 0,9.035 c 0,0 -3.779,0 -3.779,-2.052 l 0,-25.413 c 0,0 3.779,0 3.779,2.052 l 0,13.426 c 2.7,-0.18 3.996,-1.8 5.759,-5.147 0.468,-0.864 1.44,-1.62 3.24,-1.62 0.576,0 1.224,0.108 1.8,0.288 -1.728,2.412 -3.348,6.911 -6.695,7.775 5.795,1.656 6.155,7.163 7.991,10.331 z"
         id="path21"
         inkscape:connector-curvature="0"
         style="fill:#3d3d3d" /><path
         d="m 248.336,143.687 c -0.36,0.324 -1.188,1.224 -2.52,1.224 -3.708,0 -6.947,-7.919 -6.947,-17.422 0,-9.503 3.24,-17.35 6.947,-17.35 1.332,0 2.16,0.9 2.52,1.224 -3.419,0.36 -5.579,7.631 -5.579,16.054 0,8.566 2.16,15.91 5.579,16.27 z"
         id="path23"
         inkscape:connector-curvature="0"
         style="fill:#3d3d3d" /><path
         d="m 249.417,111.363 c 0.36,-0.324 1.188,-1.224 2.52,-1.224 3.708,0 6.947,7.847 6.947,17.35 0,9.503 -3.24,17.422 -6.947,17.422 -1.332,0 -2.16,-0.9 -2.52,-1.224 3.419,-0.36 5.579,-7.703 5.579,-16.27 0.001,-8.423 -2.159,-15.694 -5.579,-16.054 z"
         id="path25"
         inkscape:connector-curvature="0"
         style="fill:#3d3d3d" /></g><g
       display="inline"
       id="g27"
       style="display:inline"><path
         d="m 67.013,123.747 c 0,-1.845 -0.405,-3.15 -3.645,-3.15 -3.015,0 -5.94,0.99 -6.435,4.635 -1.44,-1.575 -2.025,-2.97 -2.025,-4.185 0,-3.105 4.005,-4.95 8.459,-4.95 6.435,0 9.495,2.97 9.495,7.919 l 0,5.4 c 0,0.9 -0.225,4.545 -6.57,5.265 0,0 0.855,-1.35 0.855,-4.185 l 0,-2.25 c -1.26,2.43 -7.74,0.945 -7.74,4.725 0,2.115 2.7,3.285 6.39,3.285 5.714,0 10.08,-1.485 10.08,-7.65 l 0,-6.885 c 0,-4.32 -2.43,-8.145 -8.91,-8.145 l -6.705,0 c -6.39,0 -8.819,3.825 -8.819,8.145 l 0,13.14 c 0,4.365 1.935,7.919 5.265,7.919 1.98,0 3.51,-0.72 3.51,-0.72 0,0 -0.405,4.365 -5.939,4.365 -5.175,0 -8.685,-5.175 -8.685,-10.979 l 0,-14.31 c 0,-6.615 5.49,-11.834 14.714,-11.834 l 6.705,0 c 9.18,0 14.714,5.22 14.714,11.834 l 0,8.055 c 0,8.82 -7.56,11.16 -16.064,11.16 -6.21,0 -11.879,-1.665 -11.879,-7.29 0,-7.83 10.124,-5.58 13.229,-9.314 z"
         id="path29"
         inkscape:connector-curvature="0"
         style="fill:#e51010" /></g></g><path
     style="fill:#e51010;fill-opacity:1;stroke:none;stroke-width:0.5;stroke-miterlimit:4;stroke-dasharray:none;stroke-opacity:1"
     d="m 1970.2434,0 0,313.95703 313.9571,0 0,-313.95703 -313.9571,0 z m 133.2032,49.49023 47.5507,0 c 65.1055,0 104.3614,37.01939 104.3614,83.93359 l 0,57.12696 c 0,51.47753 -26.8213,68.28798 -92.3242,72.62695 -14.0922,0.93347 -43.9446,1.29102 -60.0879,1.29102 l 0.1796,-184.66016 c -45.3184,0 -62.5527,12.47933 -62.5527,43.11719 l 0,13.68164 c 0,30.95699 13.7232,26.875 37.3399,26.875 14.0423,0 24.8945,-5.10547 24.8945,-5.10547 0,0 -2.8722,30.95703 -42.127,30.95703 -36.7016,0 -61.5957,-7.40851 -61.5957,-48.57812 l 0,-21.97852 c 0,-46.91421 38.9368,-69.28711 104.3614,-69.28711 z m 47.2324,30.31836 -0.7891,150.34961 c 40.5313,0 63.9805,-8.40224 63.9805,-52.125 l 0,-40.46094 c 0,-30.63785 -17.2346,-57.76367 -63.1914,-57.76367 z"
     id="rect4561"
     inkscape:connector-curvature="0" /><path
     inkscape:connector-curvature="0"
     style="fill:#e51010;fill-opacity:1;stroke:#929292;stroke-width:0.52411169;stroke-miterlimit:4;stroke-dasharray:none;stroke-opacity:1"
     d="m 622.5286,532.88086 c -14.8083,0 -26.7305,11.92221 -26.7305,26.73046 l 0,152.51563 c 0,14.80825 11.9222,26.73047 26.7305,26.73047 l 152.5156,0 c 14.8083,0 26.7305,-11.92222 26.7305,-26.73047 l 0,-152.51563 c 0,-14.80825 -11.9222,-26.73046 -26.7305,-26.73046 l -152.5156,0 z m 72.832,11.26953 c 0,0 10.0431,30.97838 22.4844,39.75195 2.6446,1.86497 6.3293,1.58862 9.5645,1.66602 2.6827,0.0642 5.404,-0.27664 7.9882,-1 7.2789,-2.03746 17.9563,-2.22897 20.6914,-9.27539 3.8443,-9.90389 -12.6718,-29.24219 -12.6718,-29.24219 0,0 35.1212,33.07232 33.4062,54.23633 -0.5183,6.39658 -6.9454,11.53005 -12.6055,14.55468 -11.3041,6.0407 -30.0505,-5.15805 -38.1523,4.77344 -16.0568,19.68295 21.9748,56.29165 5.918,75.97461 -8.4591,10.36946 -14.3337,8.45077 -20.1543,32 -42.8418,-1.05194 -45.4112,-14.06615 -47.6992,-20.7832 -8.8227,-48.78112 41.1784,-60.77122 22.5625,-82.26367 -9.0319,-10.42744 -27.7944,8.9083 -41.0645,5.13867 -5.741,-1.63085 -10.8443,-6.13115 -13.9453,-11.23047 -9.5849,-15.7614 -10.9942,-54.23828 -10.9942,-54.23828 0,0 13.4724,19.6314 23.5704,25.07422 6.6531,3.58607 14.782,3.70958 22.3379,3.89062 2.6548,0.0636 5.3489,-0.27242 7.9062,-0.98828 3.1157,-0.87219 6.7543,-1.51206 8.8574,-3.9707 9.8964,-11.56906 12,-44.06836 12,-44.06836 z"
     id="rect4360" /><path
     style="fill:#2ab80d;fill-opacity:1;stroke:none;stroke-width:0.52411169;stroke-miterlimit:4;stroke-dasharray:none;stroke-opacity:1"
     d="m 880.0286,282.69726 c -14.8083,0 -26.7305,11.92222 -26.7305,26.73047 l 0,152.51563 c 0,14.80825 11.9222,26.73046 26.7305,26.73046 l 152.5156,0 c 14.8083,0 26.7305,-11.92221 26.7305,-26.73046 l 0,-152.51563 c 0,-14.80825 -11.9222,-26.73047 -26.7305,-26.73047 z m 0.07,105.10742 c 3.9965,-43.41841 8.8462,-58.95662 25.0977,-60.73828 45.1996,-4.95525 36.5402,-41.89432 72.4433,-25.48242 -11.2561,1.2154 -14.0743,10.77212 15.2363,27.7793 28.9918,16.82211 36.6978,34.43788 37.2559,59.61523 -10.2447,-16.68129 -10.1684,-20.87806 -17.7383,-28.625 -10.0774,-10.31316 -27.0772,-16.6944 -35.2461,-8.14258 -21.9637,22.99355 27.1048,89.82423 3.1328,107.06836 l -25.4218,18.28711 c -7.9427,-3.86549 -10.2427,-28.40064 -10.0489,-42.72851 0.423,-31.26625 4.2248,-59.37575 -4.6328,-79.79493 -5.4125,-12.47722 -17.7095,-15.852 -27.7656,-11.21875 -12.5141,5.76574 -16.5462,20.34307 -32.3125,43.98047 z"
     id="rect4281"
     inkscape:connector-curvature="0"
     sodipodi:nodetypes="ssssssssscscscssscsssc" /><g
     style="font-style:normal;font-variant:normal;font-weight:bold;font-stretch:normal;font-size:180.28192139px;line-height:125%;font-family:Diavlo;-inkscape-font-specification:'Diavlo, Bold';text-align:start;letter-spacing:0px;word-spacing:0px;writing-mode:lr-tb;text-anchor:start;fill:#e51010;fill-opacity:1;stroke:none;stroke-width:1px;stroke-linecap:butt;stroke-linejoin:miter;stroke-opacity:1"
     id="text4189"
     transform="matrix(1.3415634,0,0,1.3415634,1940.7285,777.45969)" /><path
     sodipodi:nodetypes="aasczcscaasca"
     inkscape:connector-curvature="0"
     id="path4285"
     d="m 950.8098,697.11773 c 6.367,-28.56989 -19.376,-64.74696 -1.3416,-87.80205 6.7074,-8.57471 22.4337,1.44154 31.8149,-7.3786 8.2684,-7.77382 16.0054,-24.62057 12.9219,-51.51108 -13.5958,21.88107 -16.7387,28.012 -40.4435,26.95662 -23.7048,-1.05538 -16.6386,-12.77066 -24.0059,-23.84402 -10.1841,9.61377 -2.5599,24.30534 -33.2084,21.03909 -19.7661,-2.1065 -30.8717,-27.33511 -30.8717,-27.33511 0,12.5767 4.9932,34.64442 16.2691,46.64512 8.6938,9.25272 28.0121,4.23287 35.1138,14.7572 17.5367,25.98855 1.6889,62.69613 1.3416,94.04609 -0.1592,14.36623 9.1185,24.92978 15.6402,28.80562 1.4374,-12.91422 13.9961,-21.93391 16.7696,-34.37888 z"
     style="fill:#e51010" /><path
     sodipodi:nodetypes="caaaccsaaacaaaacaaaac"
     inkscape:connector-curvature="0"
     id="path4362"
     d="m 1080.046,561.57781 c 0,0 1.5093,41.20325 11.7734,58.08163 3.3208,5.4607 8.7843,10.28059 14.9322,12.02702 14.2106,4.03678 34.3034,-16.66949 43.9754,-5.50308 19.9353,23.01558 -33.6087,35.85521 -24.1608,88.09336 2.4502,7.19307 5.2016,21.12909 51.0795,22.25558 6.2331,-25.21812 12.5232,-23.16219 21.5818,-34.26652 17.1947,-21.07785 -23.5319,-60.28089 -6.3372,-81.35873 8.676,-10.63532 28.7519,1.35594 40.8571,-5.11285 6.0613,-3.23898 12.9424,-8.7348 13.4974,-15.5847 1.8365,-22.66386 -35.7733,-58.08163 -35.7733,-58.08163 0,0 17.6876,20.7102 13.571,31.31596 -2.929,7.5458 -14.3643,7.75003 -22.159,9.93188 -2.7673,0.77462 -5.6815,1.13927 -8.5544,1.0705 -3.4643,-0.0829 -7.41,0.21409 -10.242,-1.78304 -13.323,-9.39534 -24.0778,-42.57015 -24.0778,-42.57015 0,0 -2.2533,34.80248 -12.851,47.19141 -2.2522,2.63288 -6.1484,3.31767 -9.4849,4.25167 -2.7385,0.76659 -5.6223,1.12746 -8.4652,1.05934 -8.0914,-0.19387 -16.7965,-0.32524 -23.9211,-4.16544 -10.8136,-5.82855 -25.2411,-26.85221 -25.2411,-26.85221 z"
     style="fill:#e51010;fill-opacity:1;stroke:none;stroke-width:0.5;stroke-miterlimit:4;stroke-dasharray:none;stroke-opacity:1" /><path
     sodipodi:nodetypes="ssssssssscscscssscsssc"
     inkscape:connector-curvature="0"
     id="path4416"
     d="m 619.0286,279.69726 c -14.8083,0 -26.7305,11.92222 -26.7305,26.73047 l 0,152.51563 c 0,14.80825 11.9222,26.73046 26.7305,26.73046 l 152.5156,0 c 14.8083,0 26.7305,-11.92221 26.7305,-26.73046 l 0,-152.51563 c 0,-14.80825 -11.9222,-26.73047 -26.7305,-26.73047 z m -3.4297,26.10742 c 14.9965,15.08159 22.2819,31.30087 38.5977,30.26172 30.6996,-1.95525 17.5402,-27.89432 40.4433,-38.98242 -2.0275,7.0438 -2.1332,27.72673 29.2363,41.7793 26.3643,11.81036 32.6978,-23.06212 49.2559,-44.88477 3.7553,26.81871 -5.6684,61.62194 -15.7383,69.375 -11.4252,8.79659 -30.5772,-1.1944 -38.7461,7.35742 -21.9637,22.99355 11.8416,59.2202 -4.8672,83.56836 l -13.9218,20.28711 c -7.9427,-3.86549 -19.2427,-14.40064 -19.0489,-28.72851 0.423,-31.26625 19.7248,-49.87575 -1.6328,-75.79493 -8.649,-10.49623 -32.1776,-5.49073 -42.7656,-14.71874 -13.7326,-11.96866 -16.5462,-24.65694 -20.8125,-49.51954 z"
     style="fill:#2ab80d;fill-opacity:1;stroke:none;stroke-width:0.52411169;stroke-miterlimit:4;stroke-dasharray:none;stroke-opacity:1" /><path
     d="m 1789.4576,91.0872 c 45.9568,0 63.1905,27.12726 63.1905,57.76511 l 0,40.45959 c 0,43.72276 -23.4478,52.12497 -63.9791,52.12497 m -46.9434,34.31023 c 16.1433,0 45.9945,-0.35623 60.0866,-1.2897 65.5029,-4.33897 92.3247,-21.14961 92.3247,-72.62714 l 0,-57.12682 c 0,-46.9142 -39.2547,-83.93494 -104.3602,-83.93494 l -47.5525,0 c -65.4245,0 -104.3601,22.37413 -104.3601,69.28834 l 0,21.97772 c 0,41.16961 24.8932,48.57799 61.5948,48.57799 39.2547,0 42.127,-30.95699 42.127,-30.95699 0,0 -10.8509,5.1063 -24.8932,5.1063 -23.6167,0 -37.3399,4.08082 -37.3399,-26.87617 l 0,-13.67998 c 0,-30.63786 17.2338,-43.11851 62.5523,-43.11851 m 0,0 47.5525,0"
     id="path4559"
     inkscape:connector-curvature="0"
     sodipodi:nodetypes="cssccsssssssscsssccc"
     style="font-style:normal;font-variant:normal;font-weight:bold;font-stretch:normal;font-size:medium;line-height:125%;font-family:Diavlo;-inkscape-font-specification:'Diavlo, Bold';text-align:start;letter-spacing:0px;word-spacing:0px;writing-mode:lr-tb;text-anchor:start;fill:#e51010;fill-opacity:1;stroke:none;stroke-width:1px;stroke-linecap:butt;stroke-linejoin:miter;stroke-opacity:1" /><g
     id="Layer_2"
     display="none"
     style="display:none"
     transform="translate(1988.0144,831.78359)"><rect
       display="inline"
       stroke-miterlimit="10"
       width="303"
       height="255"
       id="rect37"
       x="0"
       y="0"
       style="display:inline;fill:none;stroke:#000000;stroke-miterlimit:10" /></g><rect
     style="fill:#e51010;fill-opacity:1;stroke:none;stroke-width:0.5;stroke-miterlimit:4;stroke-dasharray:none;stroke-opacity:1"
     id="rect4622"
     width="225.01556"
     height="57.982758"
     x="636.1217"
     y="806.29321"
     transform="matrix(0.9678837,0.25139836,0,1,0,0)" /><path
     style="fill:#e51010;fill-opacity:1;stroke:none;stroke-width:0.5;stroke-miterlimit:4;stroke-dasharray:none;stroke-opacity:1"
     d="m 664.1538,1164.8426 18.4042,-55.3898 16.4602,-165.74675 41.4529,-6.77023 -17.4285,175.49638 12.9696,53.7719 z"
     id="rect4624"
     inkscape:connector-curvature="0"
     sodipodi:nodetypes="ccccccc" /><rect
     style="fill:#e51010;fill-opacity:1;stroke:none;stroke-width:0.5;stroke-miterlimit:4;stroke-dasharray:none;stroke-opacity:1"
     id="rect4626"
     width="103.76907"
     height="42.478065"
     x="-895.0448"
     y="1048.6473"
     transform="matrix(0.48682233,-0.87350101,0.97433194,0.22511614,0,0)" /><rect
     transform="matrix(-0.32784013,0.94473322,-0.96491671,-0.26255616,0,0)"
     y="-1150.3917"
     x="727.66278"
     height="43.07259"
     width="98.542061"
     id="rect4628"
     style="fill:#e51010;fill-opacity:1;stroke:none;stroke-width:0.5;stroke-miterlimit:4;stroke-dasharray:none;stroke-opacity:1" /><rect
     style="fill:#e51010;fill-opacity:1;stroke:none;stroke-width:0.5;stroke-miterlimit:4;stroke-dasharray:none;stroke-opacity:1"
     id="rect4630"
     width="48.573784"
     height="28.341413"
     x="-22.294191"
     y="-1214.5261"
     transform="matrix(-0.97941516,0.20185627,-0.61086529,-0.79173455,0,0)" /><path
     style="fill:#e51010;fill-opacity:1;stroke:none;stroke-width:0.5;stroke-miterlimit:4;stroke-dasharray:none;stroke-opacity:1"
     d="m 1010.4993,940.12109 -46.5176,78.64261 41.3887,9.5625 0.1055,-0.1895 61.6328,16.0078 c 21.4571,5.5731 0.4179,45.1435 -6.5723,66.1817 l -18.4043,55.3906 c -7.5541,22.7353 77.4764,24.6509 71.8594,1.3613 l -12.9688,-53.7715 c -4.6208,-19.159 -13.2336,-63.7908 5.8418,-58.8359 l 82.5235,21.4356 27.7597,7.5527 28.3067,-81.0957 -41.5606,-11.30862 6.6038,18.14412 c 9.6012,26.3799 -79.8527,26.5386 -102.0198,0.7485 -10.2693,-11.94775 -3.9323,-44.32933 7.4434,-46.67387 l 25.8046,-5.31836 -17.3125,-22.4375 -30.832,6.35352 -16.584,2.70898 -0.072,0.72461 -0.086,0.0176 c 6.0384,14.35938 1.844,46.63558 -8.1172,54.29887 -26.6285,21.68935 -56.929,-32.67481 -42.5005,-39.80049 l 25.6646,-10.13701 -41.3867,-9.5625 z"
     id="rect4633"
     inkscape:connector-curvature="0"
     sodipodi:nodetypes="ccccssssssccccsasccccccccccc" /><path
     sodipodi:nodetypes="czcssssssccsasccccccccccc"
     inkscape:connector-curvature="0"
     id="path4644"
     d="m 1343.4993,950.12109 c -25.6457,53.06351 -55.2726,76.22301 -5.1289,88.20511 50.1437,11.9821 45.6891,9.6536 61.7383,15.8183 21.4571,5.5731 0.4179,45.1435 -6.5723,66.1817 l -18.4043,55.3906 c -7.5541,22.7353 77.4764,24.6509 71.8594,1.3613 l -12.9688,-53.7715 c -4.6208,-19.159 -13.2336,-63.7908 5.8418,-58.8359 l 82.5235,21.4356 c 47.7874,12.4128 43.8812,-38.6337 56.0664,-73.543 l -41.5606,-11.3086 6.6038,18.1441 c 9.6012,26.3799 -79.8527,26.5386 -102.0198,0.7485 -10.2693,-11.9478 -3.9323,-44.32933 7.4434,-46.67387 l 25.8046,-5.31836 -17.3125,-22.4375 -30.832,6.35352 -16.584,2.70898 -0.072,0.72461 -0.086,0.0176 c 6.0384,14.35938 1.844,46.63562 -8.1172,54.29882 -26.6285,21.6894 -56.929,-32.67476 -42.5005,-39.80044 l 25.6646,-10.13701 -41.3867,-9.5625 z"
     style="fill:#e51010;fill-opacity:1;stroke:none;stroke-width:0.5;stroke-miterlimit:4;stroke-dasharray:none;stroke-opacity:1" /><g
     id="g4765"
     transform="translate(2037.7864,852.93359)"><path
       sodipodi:nodetypes="cssssssscssssssscc"
       d="m -1544.4376,1760.6067 c 187.8765,0 304.8779,-58.0508 304.8779,-276.8581 l 0,-199.8291 c 0,-164.1055 -122.2689,-293.60362 -325.0562,-293.60362 l -148.1143,0 c -203.7814,0 -325.0562,129.49812 -325.0562,293.60362 l 0,355.0036 c 0,144.011 77.5363,272.3928 191.8527,272.3928 122.2689,0 131.2154,-108.2873 131.2154,-108.2873 0,0 -33.7979,17.8618 -77.5363,17.8618 -73.5602,0 -116.3046,-88.1927 -116.3046,-196.48 l 0,-325.9782 c 0,-107.1709 53.679,-202.0618 194.8349,-202.0618 l 148.1143,0 c 143.144,0 196.823,94.8909 196.823,202.0618 l 0,170.8037 c 0,152.9418 -46.4234,189.7818 -172.6685,189.7818 z"
       id="path4704"
       inkscape:connector-curvature="0"
       style="font-style:normal;font-variant:normal;font-weight:bold;font-stretch:normal;font-size:medium;line-height:125%;font-family:Diavlo;-inkscape-font-specification:'Diavlo, Bold';text-align:start;letter-spacing:0px;word-spacing:0px;writing-mode:lr-tb;text-anchor:start;fill:#000000;fill-opacity:1;stroke:none;stroke-width:1px;stroke-linecap:butt;stroke-linejoin:miter;stroke-opacity:1" /><path
       style="fill:#ffffff;fill-opacity:1;stroke:#ffffff;stroke-width:20.40296173;stroke-miterlimit:4;stroke-dasharray:none;stroke-opacity:1"
       d="m -1887.7204,1216.9767 c -73.3272,145.591 -166.3688,215.1298 -22.9959,248.0053 143.3727,32.8754 87.7475,15.5118 133.6361,32.4261 61.3509,15.2908 21.1169,139.0923 5.5115,198.0456 l -55.4814,209.5939 222.6187,-42.9081 -32.7923,-163.9956 c -10.6184,-53.1055 -37.9961,-174.7871 16.7034,-161.4289 l 167.2216,40.8372 c 137.0318,33.4646 173.8352,-155.4995 150.3072,-249.7807 -1.8543,-7.4305 -12.2528,-10.0525 -19.7064,-11.8119 -11.1719,-2.6371 -34.3365,2.6271 -34.3365,2.6271 l -90.1965,8.1573 18.8818,49.7823 c 27.4523,72.3787 -141.2572,80.2883 -187.5586,38.0292 -32.6399,-29.7903 -11.2434,-121.6268 21.2825,-128.0595 l 73.7818,-14.5921 -61.9972,-67.5579 -88.1567,17.4322 -47.4175,7.4326 -0.2057,1.9882 -0.2458,0.048 c 17.2651,39.398 17.7691,133.9505 -10.7125,154.9764 -76.1371,59.5094 -162.7734,-89.6503 -121.5189,-109.2011 l 121.2856,-25.8144 z"
       id="path4707"
       inkscape:connector-curvature="0"
       sodipodi:nodetypes="czcsccsssaaccsascccccccccc" /><path
       sodipodi:nodetypes="czcsccsssccsasccccccccccc"
       inkscape:connector-curvature="0"
       id="path4655"
       d="m -1859.9972,1204.8785 c -61.0864,134.3383 -137.6558,184.9701 -18.2167,215.3046 119.439,30.3346 73.0995,14.313 111.3277,29.92 50.9203,16.0001 9.2204,116.658 8.5916,126.7388 0,0 -0.7787,41.0449 -89.8767,160.9093 78.902,9.8644 215.2473,119.6298 287.113,128.8936 -28.1343,-70.7362 -73.3182,-219.3206 -73.3182,-219.3206 -13.6971,-47.8722 -29.1846,-174.6583 15.915,-160.9522 l 178.5657,54.2673 c 112.9825,34.3361 98.5221,-91.807 127.5465,-180.1853 l -98.9947,-28.6293 15.7298,45.9347 c 22.8696,66.7845 -189.2857,58.8711 -237.0046,-4.1053 -28.339,-37.4 8.4613,-131.0759 35.7298,-136.162 l 61.465,-13.4643 -55.2371,-64.8039 -73.4403,16.0849 -39.5019,6.8582 -0.1714,1.8345 -0.2047,0.044 c 14.3829,36.3529 0.3921,144.065 -23.3348,163.4659 -63.4274,54.9101 -129.6012,-74.7213 -95.2335,-92.7611 l 61.1312,-25.6633 -98.5802,-24.209 z"
       style="fill:#e51010;fill-opacity:1;stroke:none;stroke-width:0.5;stroke-miterlimit:4;stroke-dasharray:none;stroke-opacity:1" /></g><path
     style="fill:#e51010;fill-opacity:1;stroke:none;stroke-width:0.5;stroke-miterlimit:4;stroke-dasharray:none;stroke-opacity:1"
     d="m 1031.7864,1310.3691 0,362 362,0 0,-362 -362,0 z m 193.6231,54.4004 17.3125,22.4375 -25.8047,5.3184 c -11.3757,2.3445 -17.7127,34.7261 -7.4434,46.6738 22.1671,25.7901 111.6208,25.6318 102.0195,-0.748 l -6.6035,-18.1446 41.5606,11.3086 c -12.1852,34.9093 -8.279,85.9558 -56.0664,73.543 l -82.5235,-21.4356 c -19.0754,-4.9548 -9.5556,39.4806 -5.8418,58.836 l 11.4688,59.7715 -77.8594,15.6386 19.4043,-76.3906 c 5.4579,-21.4867 19.5294,-66.6086 -1.9277,-72.1816 -16.0492,-6.1648 3.4054,0.1637 -46.7383,-11.8184 -50.1437,-11.9821 -20.5168,-35.1416 5.1289,-88.2051 l 41.3867,9.5625 -25.6641,10.1368 c -14.4285,7.1256 15.8715,61.4901 42.5,39.8007 9.9612,-7.6632 14.1556,-39.9394 8.1172,-54.2988 l 0.086,-0.018 0.072,-0.7246 16.584,-2.709 30.8321,-6.3535 z"
     id="rect4675"
     inkscape:connector-curvature="0" /><path
     sodipodi:nodetypes="cssssssscssssssscc"
     d="m 1535.3488,2627.5403 c 187.8765,0 304.8779,-58.0508 304.8779,-276.8581 l 0,-199.8291 c 0,-164.1055 -122.2689,-293.6036 -325.0562,-293.6036 l -148.1143,0 c -203.7814,0 -325.0562,129.4981 -325.0562,293.6036 l 0,355.0036 c 0,144.011 77.5363,272.3928 191.8527,272.3928 122.2689,0 131.2154,-108.2873 131.2154,-108.2873 0,0 -33.7979,17.8618 -77.5363,17.8618 -73.5602,0 -116.3046,-88.1927 -116.3046,-196.48 l 0,-325.9782 c 0,-107.1709 53.679,-202.0618 194.8349,-202.0618 l 148.1143,0 c 143.144,0 196.823,94.8909 196.823,202.0618 l 0,170.8037 c 0,152.9418 -46.4234,189.7818 -172.6685,189.7818 z"
     id="path4750"
     inkscape:connector-curvature="0"
     style="font-style:normal;font-variant:normal;font-weight:bold;font-stretch:normal;font-size:medium;line-height:125%;font-family:Diavlo;-inkscape-font-specification:'Diavlo, Bold';text-align:start;letter-spacing:0px;word-spacing:0px;writing-mode:lr-tb;text-anchor:start;fill:#000000;fill-opacity:1;stroke:none;stroke-width:1px;stroke-linecap:butt;stroke-linejoin:miter;stroke-opacity:1" /><path
     style="fill:#ffffff;fill-opacity:1;stroke:#ffffff;stroke-width:20.40296173;stroke-miterlimit:4;stroke-dasharray:none;stroke-opacity:1"
     d="m 1192.066,2083.9103 c -73.3272,145.591 -166.3688,215.1298 -22.9959,248.0053 143.3727,32.8754 87.7475,15.5118 133.6361,32.4261 61.3509,15.2908 21.1169,139.0923 5.5115,198.0456 l -55.4814,209.5939 222.6187,-42.9081 -32.7923,-163.9956 c -10.6184,-53.1055 -39.0857,-169.0479 16.7034,-161.4289 l 167.2216,22.8372 c 139.7615,19.0871 171.0987,-142.075 150.3072,-231.7807 -1.7292,-7.4606 -12.048,-11.8157 -19.7064,-11.8119 -13.352,0.01 -34.3365,20.6271 -34.3365,20.6271 l -90.1965,-9.8427 18.8818,49.7823 c 27.4523,72.3787 -141.2572,80.2883 -187.5586,38.0292 -32.6399,-29.7903 -11.2434,-121.6268 21.2825,-128.0595 l 73.7818,-14.5921 -61.9972,-67.5579 -88.1567,17.4322 -47.4175,7.4326 -0.2057,1.9882 -0.2458,0.048 c 17.2651,39.398 17.7691,133.9505 -10.7125,154.9764 -76.1371,59.5094 -162.7734,-89.6503 -121.5189,-109.2011 l 121.2856,-25.8144 z"
     id="path4752"
     inkscape:connector-curvature="0"
     sodipodi:nodetypes="czcsccsssaaccsascccccccccc" /><g
     id="g4770"
     transform="matrix(0.05173401,0,0,0.05173401,2359.4598,2131.4979)"><path
       style="font-style:normal;font-variant:normal;font-weight:bold;font-stretch:normal;font-size:medium;line-height:125%;font-family:Diavlo;-inkscape-font-specification:'Diavlo, Bold';text-align:start;letter-spacing:0px;word-spacing:0px;writing-mode:lr-tb;text-anchor:start;fill:#000000;fill-opacity:1;stroke:none;stroke-width:1px;stroke-linecap:butt;stroke-linejoin:miter;stroke-opacity:1"
       inkscape:connector-curvature="0"
       id="path4772"
       d="m -1544.4376,1760.6067 c 187.8765,0 304.8779,-58.0508 304.8779,-276.8581 l 0,-199.8291 c 0,-164.1055 -122.2689,-293.60362 -325.0562,-293.60362 l -148.1143,0 c -203.7814,0 -325.0562,129.49812 -325.0562,293.60362 l 0,355.0036 c 0,144.011 77.5363,272.3928 191.8527,272.3928 122.2689,0 131.2154,-108.2873 131.2154,-108.2873 0,0 -33.7979,17.8618 -77.5363,17.8618 -73.5602,0 -116.3046,-88.1927 -116.3046,-196.48 l 0,-325.9782 c 0,-107.1709 53.679,-202.0618 194.8349,-202.0618 l 148.1143,0 c 143.144,0 196.823,94.8909 196.823,202.0618 l 0,170.8037 c 0,152.9418 -46.4234,189.7818 -172.6685,189.7818 z"
       sodipodi:nodetypes="cssssssscssssssscc" /><path
       sodipodi:nodetypes="czcsccsssaaccsascccccccccc"
       inkscape:connector-curvature="0"
       id="path4774"
       d="m -1887.7204,1216.9767 c -73.3272,145.591 -166.3688,215.1298 -22.9959,248.0053 143.3727,32.8754 87.7475,15.5118 133.6361,32.4261 61.3509,15.2908 21.1169,139.0923 5.5115,198.0456 l -55.4814,209.5939 222.6187,-42.9081 -32.7923,-163.9956 c -10.6184,-53.1055 -39.0857,-169.0479 16.7034,-161.4289 l 167.2216,22.8372 c 139.7615,19.0871 171.0987,-142.075 150.3072,-231.7807 -1.7292,-7.4606 -12.048,-11.8157 -19.7064,-11.8119 -13.352,0.01 -34.3365,20.6271 -34.3365,20.6271 l -90.1965,-9.8427 18.8818,49.7823 c 27.4523,72.3787 -141.2572,80.2883 -187.5586,38.0292 -32.6399,-29.7903 -11.2434,-121.6268 21.2825,-128.0595 l 73.7818,-14.5921 -61.9972,-67.5579 -88.1567,17.4322 -47.4175,7.4326 -0.2057,1.9882 -0.2458,0.048 c 17.2651,39.398 17.7691,133.9505 -10.7125,154.9764 -76.1371,59.5094 -162.7734,-89.6503 -121.5189,-109.2011 l 121.2856,-25.8144 z"
       style="fill:#ffffff;fill-opacity:1;stroke:#ffffff;stroke-width:20.40296173;stroke-miterlimit:4;stroke-dasharray:none;stroke-opacity:1" /><path
       style="fill:#e51010;fill-opacity:1;stroke:none;stroke-width:0.5;stroke-miterlimit:4;stroke-dasharray:none;stroke-opacity:1"
       d="m -1823.8806,1253.8327 c -51.3181,106.1823 -110.6028,152.5254 -10.2631,176.5021 100.3396,23.9767 61.4102,11.3131 93.5254,23.649 42.9365,11.1519 14.7788,101.4427 3.8573,144.4385 l -38.8288,152.8609 155.8,-31.2937 -22.9498,-119.6052 c -7.4312,-38.7309 -26.4809,-127.6481 11.6899,-117.7332 l 165.133,42.8934 c 95.6246,24.8387 87.8081,-77.3076 112.1912,-147.1626 l -83.1645,-22.6289 13.2144,36.3072 c 19.2125,52.7871 -159.7886,53.1048 -204.1459,1.4976 -20.5492,-23.9079 -7.8687,-88.7048 14.8946,-93.3963 l 51.6362,-10.6423 -34.6429,-44.8984 -61.6965,12.7137 -33.1852,5.4208 -0.144,1.45 -0.172,0.035 c 12.083,28.7337 3.6898,93.3197 -16.243,108.6543 -53.2847,43.4015 -113.9173,-65.3837 -85.0453,-79.6425 l 51.3558,-20.2845 -82.8164,-19.135 z"
       id="path4776"
       inkscape:connector-curvature="0"
       sodipodi:nodetypes="czcsccsssccsasccccccccccc" /></g><g
     id="g4817"
     transform="translate(3200.2699,881.21786)" /></svg>